# 3ds Max Wavefront OBJ Exporter v0.99 - (c)2007 guruware
# File Created: 09.12.2023 23:25:45

mtllib BaseCilindro.mtl

#
# object Box001
#

v  -244.9904 0.0000 263.9231
v  -244.9904 0.0000 -263.9231
v  244.9904 0.0000 -263.9231
v  244.9904 0.0000 263.9231
v  -244.9904 30.2218 263.9231
v  244.9904 30.2218 263.9231
v  244.9904 30.2218 -263.9231
v  -244.9904 30.2218 -263.9231
# 8 vertices

vn 0.0000 -1.0000 -0.0000
vn 0.0000 1.0000 -0.0000
vn 0.0000 0.0000 1.0000
vn 1.0000 0.0000 -0.0000
vn 0.0000 0.0000 -1.0000
vn -1.0000 0.0000 -0.0000
# 6 vertex normals

vt 1.0000 0.0000 0.0000
vt 1.0000 1.0000 0.0000
vt 0.0000 1.0000 0.0000
vt 0.0000 0.0000 0.0000
# 4 texture coords

o Box001
g Box001
usemtl Material__2
s 2
f 1/1/1 2/2/1 3/3/1 
f 3/3/1 4/4/1 1/1/1 
s 4
f 5/4/2 6/1/2 7/2/2 
f 7/2/2 8/3/2 5/4/2 
s 8
f 1/4/3 4/1/3 6/2/3 
f 6/2/3 5/3/3 1/4/3 
s 16
f 4/4/4 3/1/4 7/2/4 
f 7/2/4 6/3/4 4/4/4 
s 32
f 3/4/5 2/1/5 8/2/5 
f 8/2/5 7/3/5 3/4/5 
s 64
f 2/4/6 1/1/6 5/2/6 
f 5/2/6 8/3/6 2/4/6 
# 12 faces

#
# object Cylinder001
#

v  18.2916 14.8860 14.1322
v  12.4094 14.8860 19.0680
v  5.1938 14.8860 21.6942
v  -2.4849 14.8860 21.6942
v  -9.7005 14.8860 19.0680
v  -15.5827 14.8860 14.1322
v  -19.4220 14.8860 7.4823
v  -20.7554 14.8860 -0.0798
v  -19.4220 14.8860 -7.6418
v  -15.5827 14.8860 -14.2917
v  -9.7005 14.8860 -19.2275
v  -2.4849 14.8860 -21.8538
v  5.1938 14.8860 -21.8538
v  12.4094 14.8860 -19.2275
v  18.2916 14.8860 -14.2917
v  22.1310 14.8860 -7.6418
v  23.4644 14.8860 -0.0798
v  22.1310 14.8860 7.4823
v  22.1310 51.6281 -7.6418
v  23.4644 51.6281 -0.0798
v  18.2916 51.6281 -14.2917
v  12.4094 51.6281 -19.2275
v  5.1938 51.6281 -21.8538
v  -2.4849 51.6281 -21.8538
v  -9.7005 51.6281 -19.2275
v  -15.5827 51.6281 -14.2917
v  -19.4220 51.6281 -7.6418
v  -20.7554 51.6281 -0.0798
v  -19.4220 51.6281 7.4823
v  -15.5827 51.6281 14.1322
v  -9.7005 51.6281 19.0680
v  -2.4849 51.6281 21.6942
v  5.1938 51.6281 21.6942
v  12.4094 51.6281 19.0680
v  18.2916 51.6281 14.1322
v  22.1310 51.6281 7.4823
v  22.1310 88.3702 -7.6418
v  23.4644 88.3702 -0.0798
v  18.2916 88.3702 -14.2917
v  12.4094 88.3702 -19.2275
v  5.1938 88.3702 -21.8538
v  -2.4849 88.3702 -21.8538
v  -9.7005 88.3702 -19.2275
v  -15.5827 88.3702 -14.2917
v  -19.4220 88.3702 -7.6418
v  -20.7554 88.3702 -0.0798
v  -19.4220 88.3702 7.4823
v  -15.5827 88.3702 14.1322
v  -9.7005 88.3702 19.0680
v  -2.4849 88.3702 21.6942
v  5.1938 88.3702 21.6942
v  12.4094 88.3702 19.0680
v  18.2916 88.3702 14.1322
v  22.1310 88.3702 7.4823
v  22.1310 125.1124 -7.6418
v  23.4644 125.1124 -0.0798
v  18.2916 125.1124 -14.2917
v  12.4094 125.1124 -19.2275
v  5.1938 125.1124 -21.8538
v  -2.4849 125.1124 -21.8538
v  -9.7005 125.1124 -19.2275
v  -15.5827 125.1124 -14.2917
v  -19.4220 125.1124 -7.6418
v  -20.7554 125.1124 -0.0798
v  -19.4220 125.1124 7.4823
v  -15.5827 125.1124 14.1322
v  -9.7005 125.1124 19.0680
v  -2.4849 125.1124 21.6942
v  5.1938 125.1124 21.6942
v  12.4094 125.1124 19.0680
v  18.2916 125.1124 14.1322
v  22.1310 125.1124 7.4823
v  22.1310 161.8545 -7.6418
v  23.4644 161.8545 -0.0798
v  18.2916 161.8545 -14.2917
v  12.4094 161.8545 -19.2275
v  5.1938 161.8545 -21.8538
v  -2.4849 161.8545 -21.8538
v  -9.7005 161.8545 -19.2275
v  -15.5827 161.8545 -14.2917
v  -19.4220 161.8545 -7.6418
v  -20.7554 161.8545 -0.0798
v  -19.4220 161.8545 7.4823
v  -15.5827 161.8545 14.1322
v  -9.7005 161.8545 19.0680
v  -2.4849 161.8545 21.6942
v  5.1938 161.8545 21.6942
v  12.4094 161.8545 19.0680
v  18.2916 161.8545 14.1322
v  22.1310 161.8545 7.4823
v  22.1310 198.5966 -7.6418
v  23.4644 198.5966 -0.0798
v  18.2916 198.5966 -14.2917
v  12.4094 198.5966 -19.2275
v  5.1938 198.5966 -21.8538
v  -2.4849 198.5966 -21.8538
v  -9.7005 198.5966 -19.2275
v  -15.5827 198.5966 -14.2917
v  -19.4220 198.5966 -7.6418
v  -20.7554 198.5966 -0.0798
v  -19.4220 198.5966 7.4823
v  -15.5827 198.5966 14.1322
v  -9.7005 198.5966 19.0680
v  -2.4849 198.5966 21.6942
v  5.1938 198.5966 21.6942
v  12.4094 198.5966 19.0680
v  18.2916 198.5966 14.1322
v  22.1310 198.5966 7.4823
# 108 vertices

vn 0.0000 -1.0000 -0.0000
vn 1.0000 -0.0000 0.0000
vn 0.9397 -0.0000 -0.3420
vn 0.7660 -0.0000 -0.6428
vn 0.5000 -0.0000 -0.8660
vn 0.1736 -0.0000 -0.9848
vn -0.1736 -0.0000 -0.9848
vn -0.5000 -0.0000 -0.8660
vn -0.7660 -0.0000 -0.6428
vn -0.9397 -0.0000 -0.3420
vn -1.0000 -0.0000 -0.0000
vn -0.9397 -0.0000 0.3420
vn -0.7660 -0.0000 0.6428
vn -0.5000 -0.0000 0.8660
vn -0.1736 -0.0000 0.9848
vn 0.1736 -0.0000 0.9848
vn 0.5000 -0.0000 0.8660
vn 0.7660 -0.0000 0.6428
vn 0.9397 -0.0000 0.3420
vn 0.9397 0.0000 -0.3420
vn 1.0000 0.0000 0.0000
vn 0.7660 0.0000 -0.6428
vn 0.5000 0.0000 -0.8660
vn 0.1736 0.0000 -0.9848
vn -0.1736 0.0000 -0.9848
vn -0.5000 0.0000 -0.8660
vn -0.7660 0.0000 -0.6428
vn -0.9397 0.0000 -0.3420
vn -1.0000 0.0000 -0.0000
vn -0.9397 0.0000 0.3420
vn -0.7660 0.0000 0.6428
vn -0.5000 0.0000 0.8660
vn -0.1736 0.0000 0.9848
vn 0.1736 0.0000 0.9848
vn 0.5000 0.0000 0.8660
vn 0.7660 0.0000 0.6428
vn 0.9397 0.0000 0.3420
vn 0.0000 1.0000 -0.0000
# 38 vertex normals

vt 0.1953 0.0000 -0.3473
vt 0.0874 0.0000 -0.6527
vt 0.0292 0.0000 -0.8794
vt 0.0278 0.0000 -1.0000
vt 0.0833 0.0000 -1.0000
vt 0.1891 0.0000 -0.8794
vt 0.3325 0.0000 -0.6527
vt 0.4960 0.0000 -0.3473
vt 0.6600 0.0000 0.0000
vt 0.8047 0.0000 0.3473
vt 0.9126 0.0000 0.6527
vt 0.9708 0.0000 0.8794
vt 0.9722 0.0000 1.0000
vt 0.9167 0.0000 1.0000
vt 0.8611 0.0000 1.0000
vt 0.8056 0.0000 1.0000
vt 0.7500 0.0000 1.0000
vt 0.3400 0.0000 -0.0000
vt 0.8056 0.2000 1.0000
vt 0.7500 0.2000 1.0000
vt 0.8611 0.2000 1.0000
vt 0.9167 0.2000 1.0000
vt 0.9722 0.2000 1.0000
vt -0.0278 0.0000 1.0000
vt 0.0278 0.0000 1.0000
vt 0.0278 0.2000 1.0000
vt -0.0278 0.2000 1.0000
vt 0.0833 0.0000 1.0000
vt 0.0833 0.2000 1.0000
vt 0.1389 0.0000 1.0000
vt 0.1389 0.2000 1.0000
vt 0.1944 0.0000 1.0000
vt 0.1944 0.2000 1.0000
vt 0.2500 0.0000 1.0000
vt 0.2500 0.2000 1.0000
vt 0.3056 0.0000 1.0000
vt 0.3056 0.2000 1.0000
vt 0.3611 0.0000 1.0000
vt 0.3611 0.2000 1.0000
vt 0.4167 0.0000 1.0000
vt 0.4167 0.2000 1.0000
vt 0.4722 0.0000 1.0000
vt 0.4722 0.2000 1.0000
vt 0.5278 0.0000 1.0000
vt 0.5278 0.2000 1.0000
vt 0.5833 0.0000 1.0000
vt 0.5833 0.2000 1.0000
vt 0.6389 0.0000 1.0000
vt 0.6389 0.2000 1.0000
vt 0.6944 0.0000 1.0000
vt 0.6944 0.2000 1.0000
vt 0.8056 0.4000 1.0000
vt 0.7500 0.4000 1.0000
vt 0.8611 0.4000 1.0000
vt 0.9167 0.4000 1.0000
vt 0.9722 0.4000 1.0000
vt 0.0278 0.4000 1.0000
vt -0.0278 0.4000 1.0000
vt 0.0833 0.4000 1.0000
vt 0.1389 0.4000 1.0000
vt 0.1944 0.4000 1.0000
vt 0.2500 0.4000 1.0000
vt 0.3056 0.4000 1.0000
vt 0.3611 0.4000 1.0000
vt 0.4167 0.4000 1.0000
vt 0.4722 0.4000 1.0000
vt 0.5278 0.4000 1.0000
vt 0.5833 0.4000 1.0000
vt 0.6389 0.4000 1.0000
vt 0.6944 0.4000 1.0000
vt 0.8056 0.6000 1.0000
vt 0.7500 0.6000 1.0000
vt 0.8611 0.6000 1.0000
vt 0.9167 0.6000 1.0000
vt 0.9722 0.6000 1.0000
vt 0.0278 0.6000 1.0000
vt -0.0278 0.6000 1.0000
vt 0.0833 0.6000 1.0000
vt 0.1389 0.6000 1.0000
vt 0.1944 0.6000 1.0000
vt 0.2500 0.6000 1.0000
vt 0.3056 0.6000 1.0000
vt 0.3611 0.6000 1.0000
vt 0.4167 0.6000 1.0000
vt 0.4722 0.6000 1.0000
vt 0.5278 0.6000 1.0000
vt 0.5833 0.6000 1.0000
vt 0.6389 0.6000 1.0000
vt 0.6944 0.6000 1.0000
vt 0.8056 0.8000 1.0000
vt 0.7500 0.8000 1.0000
vt 0.8611 0.8000 1.0000
vt 0.9167 0.8000 1.0000
vt 0.9722 0.8000 1.0000
vt 0.0278 0.8000 1.0000
vt -0.0278 0.8000 1.0000
vt 0.0833 0.8000 1.0000
vt 0.1389 0.8000 1.0000
vt 0.1944 0.8000 1.0000
vt 0.2500 0.8000 1.0000
vt 0.3056 0.8000 1.0000
vt 0.3611 0.8000 1.0000
vt 0.4167 0.8000 1.0000
vt 0.4722 0.8000 1.0000
vt 0.5278 0.8000 1.0000
vt 0.5833 0.8000 1.0000
vt 0.6389 0.8000 1.0000
vt 0.6944 0.8000 1.0000
vt 0.8056 1.0000 1.0000
vt 0.7500 1.0000 1.0000
vt 0.8611 1.0000 1.0000
vt 0.9167 1.0000 1.0000
vt 0.9722 1.0000 1.0000
vt 0.0278 1.0000 1.0000
vt -0.0278 1.0000 1.0000
vt 0.0833 1.0000 1.0000
vt 0.1389 1.0000 1.0000
vt 0.1944 1.0000 1.0000
vt 0.2500 1.0000 1.0000
vt 0.3056 1.0000 1.0000
vt 0.3611 1.0000 1.0000
vt 0.4167 1.0000 1.0000
vt 0.4722 1.0000 1.0000
vt 0.5278 1.0000 1.0000
vt 0.5833 1.0000 1.0000
vt 0.6389 1.0000 1.0000
vt 0.6944 1.0000 1.0000
vt 0.9708 1.0000 0.8794
vt 0.9126 1.0000 0.6527
vt 0.8047 1.0000 0.3473
vt 0.6600 1.0000 -0.0000
vt 0.4960 1.0000 -0.3473
vt 0.3325 1.0000 -0.6527
vt 0.1891 1.0000 -0.8794
vt 0.0833 1.0000 -1.0000
vt 0.0278 1.0000 -1.0000
vt 0.0292 1.0000 -0.8794
vt 0.0874 1.0000 -0.6527
vt 0.1953 1.0000 -0.3473
# 139 texture coords

o Cylinder001
g Cylinder001
usemtl Material__2
s 1
f 9/5/7 10/6/7 11/7/7 
f 11/7/7 12/8/7 13/9/7 
f 13/9/7 14/10/7 15/11/7 
f 11/7/7 13/9/7 15/11/7 
f 15/11/7 16/12/7 17/13/7 
f 17/13/7 18/14/7 19/15/7 
f 15/11/7 17/13/7 19/15/7 
f 19/15/7 20/16/7 21/17/7 
f 21/17/7 22/18/7 23/19/7 
f 19/15/7 21/17/7 23/19/7 
f 15/11/7 19/15/7 23/19/7 
f 11/7/7 15/11/7 23/19/7 
f 23/19/7 24/20/7 25/21/7 
f 11/7/7 23/19/7 25/21/7 
f 9/5/7 11/7/7 25/21/7 
f 26/22/7 9/5/7 25/21/7 
s 8
f 25/21/8 24/20/9 27/23/9 
f 27/23/9 28/24/8 25/21/8 
f 24/20/9 23/19/10 29/25/10 
f 29/25/10 27/23/9 24/20/9 
f 23/19/10 22/18/11 30/26/11 
f 30/26/11 29/25/10 23/19/10 
f 22/18/11 21/17/12 31/27/12 
f 31/27/12 30/26/11 22/18/11 
f 21/28/12 20/29/13 32/30/13 
f 32/30/13 31/31/12 21/28/12 
f 20/29/13 19/32/14 33/33/14 
f 33/33/14 32/30/13 20/29/13 
f 19/32/14 18/34/15 34/35/15 
f 34/35/15 33/33/14 19/32/14 
f 18/34/15 17/36/16 35/37/16 
f 35/37/16 34/35/15 18/34/15 
f 17/36/16 16/38/17 36/39/17 
f 36/39/17 35/37/16 17/36/16 
f 16/38/17 15/40/18 37/41/18 
f 37/41/18 36/39/17 16/38/17 
f 15/40/18 14/42/19 38/43/19 
f 38/43/19 37/41/18 15/40/18 
f 14/42/19 13/44/20 39/45/20 
f 39/45/20 38/43/19 14/42/19 
f 13/44/20 12/46/21 40/47/21 
f 40/47/21 39/45/20 13/44/20 
f 12/46/21 11/48/22 41/49/22 
f 41/49/22 40/47/21 12/46/21 
f 11/48/22 10/50/23 42/51/23 
f 42/51/23 41/49/22 11/48/22 
f 10/50/23 9/52/24 43/53/24 
f 43/53/24 42/51/23 10/50/23 
f 9/52/24 26/54/25 44/55/25 
f 44/55/25 43/53/24 9/52/24 
f 26/54/25 25/21/8 28/24/8 
f 28/24/8 44/55/25 26/54/25 
f 28/24/8 27/23/9 45/56/26 
f 45/56/26 46/57/27 28/24/8 
f 27/23/9 29/25/10 47/58/28 
f 47/58/28 45/56/26 27/23/9 
f 29/25/10 30/26/11 48/59/29 
f 48/59/29 47/58/28 29/25/10 
f 30/26/11 31/27/12 49/60/30 
f 49/60/30 48/59/29 30/26/11 
f 31/31/12 32/30/13 50/61/31 
f 50/61/31 49/62/30 31/31/12 
f 32/30/13 33/33/14 51/63/32 
f 51/63/32 50/61/31 32/30/13 
f 33/33/14 34/35/15 52/64/33 
f 52/64/33 51/63/32 33/33/14 
f 34/35/15 35/37/16 53/65/34 
f 53/65/34 52/64/33 34/35/15 
f 35/37/16 36/39/17 54/66/35 
f 54/66/35 53/65/34 35/37/16 
f 36/39/17 37/41/18 55/67/36 
f 55/67/36 54/66/35 36/39/17 
f 37/41/18 38/43/19 56/68/37 
f 56/68/37 55/67/36 37/41/18 
f 38/43/19 39/45/20 57/69/38 
f 57/69/38 56/68/37 38/43/19 
f 39/45/20 40/47/21 58/70/39 
f 58/70/39 57/69/38 39/45/20 
f 40/47/21 41/49/22 59/71/40 
f 59/71/40 58/70/39 40/47/21 
f 41/49/22 42/51/23 60/72/41 
f 60/72/41 59/71/40 41/49/22 
f 42/51/23 43/53/24 61/73/42 
f 61/73/42 60/72/41 42/51/23 
f 43/53/24 44/55/25 62/74/43 
f 62/74/43 61/73/42 43/53/24 
f 44/55/25 28/24/8 46/57/27 
f 46/57/27 62/74/43 44/55/25 
f 46/57/27 45/56/26 63/75/26 
f 63/75/26 64/76/27 46/57/27 
f 45/56/26 47/58/28 65/77/28 
f 65/77/28 63/75/26 45/56/26 
f 47/58/28 48/59/29 66/78/29 
f 66/78/29 65/77/28 47/58/28 
f 48/59/29 49/60/30 67/79/30 
f 67/79/30 66/78/29 48/59/29 
f 49/62/30 50/61/31 68/80/31 
f 68/80/31 67/81/30 49/62/30 
f 50/61/31 51/63/32 69/82/32 
f 69/82/32 68/80/31 50/61/31 
f 51/63/32 52/64/33 70/83/33 
f 70/83/33 69/82/32 51/63/32 
f 52/64/33 53/65/34 71/84/34 
f 71/84/34 70/83/33 52/64/33 
f 53/65/34 54/66/35 72/85/35 
f 72/85/35 71/84/34 53/65/34 
f 54/66/35 55/67/36 73/86/36 
f 73/86/36 72/85/35 54/66/35 
f 55/67/36 56/68/37 74/87/37 
f 74/87/37 73/86/36 55/67/36 
f 56/68/37 57/69/38 75/88/38 
f 75/88/38 74/87/37 56/68/37 
f 57/69/38 58/70/39 76/89/39 
f 76/89/39 75/88/38 57/69/38 
f 58/70/39 59/71/40 77/90/40 
f 77/90/40 76/89/39 58/70/39 
f 59/71/40 60/72/41 78/91/41 
f 78/91/41 77/90/40 59/71/40 
f 60/72/41 61/73/42 79/92/42 
f 79/92/42 78/91/41 60/72/41 
f 61/73/42 62/74/43 80/93/43 
f 80/93/43 79/92/42 61/73/42 
f 62/74/43 46/57/27 64/76/27 
f 64/76/27 80/93/43 62/74/43 
f 64/76/27 63/75/26 81/94/26 
f 81/94/26 82/95/27 64/76/27 
f 63/75/26 65/77/28 83/96/28 
f 83/96/28 81/94/26 63/75/26 
f 65/77/28 66/78/29 84/97/29 
f 84/97/29 83/96/28 65/77/28 
f 66/78/29 67/79/30 85/98/30 
f 85/98/30 84/97/29 66/78/29 
f 67/81/30 68/80/31 86/99/31 
f 86/99/31 85/100/30 67/81/30 
f 68/80/31 69/82/32 87/101/32 
f 87/101/32 86/99/31 68/80/31 
f 69/82/32 70/83/33 88/102/33 
f 88/102/33 87/101/32 69/82/32 
f 70/83/33 71/84/34 89/103/34 
f 89/103/34 88/102/33 70/83/33 
f 71/84/34 72/85/35 90/104/35 
f 90/104/35 89/103/34 71/84/34 
f 72/85/35 73/86/36 91/105/36 
f 91/105/36 90/104/35 72/85/35 
f 73/86/36 74/87/37 92/106/37 
f 92/106/37 91/105/36 73/86/36 
f 74/87/37 75/88/38 93/107/38 
f 93/107/38 92/106/37 74/87/37 
f 75/88/38 76/89/39 94/108/39 
f 94/108/39 93/107/38 75/88/38 
f 76/89/39 77/90/40 95/109/40 
f 95/109/40 94/108/39 76/89/39 
f 77/90/40 78/91/41 96/110/41 
f 96/110/41 95/109/40 77/90/40 
f 78/91/41 79/92/42 97/111/42 
f 97/111/42 96/110/41 78/91/41 
f 79/92/42 80/93/43 98/112/43 
f 98/112/43 97/111/42 79/92/42 
f 80/93/43 64/76/27 82/95/27 
f 82/95/27 98/112/43 80/93/43 
f 82/95/27 81/94/26 99/113/26 
f 99/113/26 100/114/27 82/95/27 
f 81/94/26 83/96/28 101/115/28 
f 101/115/28 99/113/26 81/94/26 
f 83/96/28 84/97/29 102/116/29 
f 102/116/29 101/115/28 83/96/28 
f 84/97/29 85/98/30 103/117/30 
f 103/117/30 102/116/29 84/97/29 
f 85/100/30 86/99/31 104/118/31 
f 104/118/31 103/119/30 85/100/30 
f 86/99/31 87/101/32 105/120/32 
f 105/120/32 104/118/31 86/99/31 
f 87/101/32 88/102/33 106/121/33 
f 106/121/33 105/120/32 87/101/32 
f 88/102/33 89/103/34 107/122/34 
f 107/122/34 106/121/33 88/102/33 
f 89/103/34 90/104/35 108/123/35 
f 108/123/35 107/122/34 89/103/34 
f 90/104/35 91/105/36 109/124/36 
f 109/124/36 108/123/35 90/104/35 
f 91/105/36 92/106/37 110/125/37 
f 110/125/37 109/124/36 91/105/36 
f 92/106/37 93/107/38 111/126/38 
f 111/126/38 110/125/37 92/106/37 
f 93/107/38 94/108/39 112/127/39 
f 112/127/39 111/126/38 93/107/38 
f 94/108/39 95/109/40 113/128/40 
f 113/128/40 112/127/39 94/108/39 
f 95/109/40 96/110/41 114/129/41 
f 114/129/41 113/128/40 95/109/40 
f 96/110/41 97/111/42 115/130/42 
f 115/130/42 114/129/41 96/110/41 
f 97/111/42 98/112/43 116/131/43 
f 116/131/43 115/130/42 97/111/42 
f 98/112/43 82/95/27 100/114/27 
f 100/114/27 116/131/43 98/112/43 
s 1
f 100/114/44 99/113/44 101/115/44 
f 101/115/44 102/116/44 103/117/44 
f 103/117/44 104/132/44 105/133/44 
f 101/115/44 103/117/44 105/133/44 
f 105/133/44 106/134/44 107/135/44 
f 107/135/44 108/136/44 109/137/44 
f 105/133/44 107/135/44 109/137/44 
f 109/137/44 110/138/44 111/139/44 
f 111/139/44 112/140/44 113/141/44 
f 109/137/44 111/139/44 113/141/44 
f 105/133/44 109/137/44 113/141/44 
f 101/115/44 105/133/44 113/141/44 
f 113/141/44 114/142/44 115/143/44 
f 101/115/44 113/141/44 115/143/44 
f 100/114/44 101/115/44 115/143/44 
f 116/131/44 100/114/44 115/143/44 
# 212 faces

